<svg width="147" height="38" viewBox="0 0 147 38" fill="none" xmlns="http://www.w3.org/2000/svg">
<path opacity="0.75" d="M73.5069 0.499988C93.7743 0.507659 112.106 2.60013 125.354 5.96883C131.983 7.65413 137.311 9.65191 140.969 11.8497C144.66 14.0664 146.501 16.3927 146.5 18.6868C146.499 20.9807 144.656 23.3049 140.964 25.5187C137.304 27.7137 131.974 29.7075 125.345 31.3878C112.093 34.7464 93.7606 36.825 73.4931 36.8174C53.2257 36.8097 34.8945 34.7172 21.6456 31.3485C15.0175 29.6632 9.6894 27.6654 6.03063 25.4676C2.58458 23.3975 0.751065 21.2323 0.524259 19.0866C20.0169 17.4554 28.2473 12.8046 36.5673 8.56511C40.7415 6.43817 44.9207 4.42659 50.5763 2.94248C56.2342 1.45781 63.3905 0.496159 73.5069 0.499988Z" stroke="#6B4423"/>
</svg>
