<svg width="64" height="29" viewBox="0 0 64 29" fill="none" xmlns="http://www.w3.org/2000/svg">
<path d="M64 5C64 7.76142 49.6731 6.5 32 6.5C14.3269 6.5 0 7.76142 0 5C0 2.23858 14.3269 0 32 0C49.6731 0 64 2.23858 64 5Z" fill="#69330D"/>
<path d="M64 12.5066C64 15.268 49.6731 17.5066 32 17.5066C14.3269 17.5066 0 15.268 0 12.5066C0 9.74517 19.5 10.0066 19.5 10.0066C19.5 10.0066 64 9.74517 64 12.5066Z" fill="#69330D"/>
<path d="M3.8147e-06 23.5066C3.8147e-06 26.268 14.3269 28.5066 32 28.5066C49.6731 28.5066 64 26.268 64 23.5066C64 20.7452 44.5 21.0066 44.5 21.0066C44.5 21.0066 3.8147e-06 20.7452 3.8147e-06 23.5066Z" fill="#69330D"/>
</svg>
