<svg width="121" height="34" viewBox="0 0 121 34" fill="none" xmlns="http://www.w3.org/2000/svg">
<path opacity="0.75" d="M119.025 16.4324C119.973 17.8949 120.148 19.0927 119.815 20.1526C119.46 21.2796 118.498 22.3638 116.957 23.4813C115.422 24.5933 113.38 25.6916 110.965 26.8731C108.565 28.0473 105.864 29.2723 102.932 30.6792C67.1094 33.0746 47.846 33.2032 14.4017 32.1848C10.2209 30.8129 7.48263 29.5494 5.44885 28.017C3.43687 26.5009 2.0841 24.6984 0.713055 22.1912C0.384014 19.7785 0.411825 18.1232 0.983402 16.7876C1.55576 15.4506 2.71133 14.3466 4.85404 13.1407L4.86327 13.1351C11.597 9.16534 16.9522 7.03733 28.314 3.34112C43.0438 1.4683 60.3325 0.633645 74.2629 0.514766C81.2351 0.455268 87.3594 0.575809 91.8947 0.834047C94.1634 0.96323 96.0267 1.12609 97.3963 1.31734C98.0817 1.41304 98.6336 1.51477 99.0469 1.61961C99.4838 1.73044 99.6958 1.829 99.7641 1.88241C100.912 2.7798 101.461 4.03036 101.835 5.27561C102.031 5.92755 102.152 6.47398 102.318 7.05829C102.469 7.59241 102.65 8.12566 102.94 8.51805L102.985 8.57796L103.045 8.62144C108.464 12.6398 112.163 14.2003 119.025 16.4324Z" stroke="#786D5F"/>
</svg>
