<svg width="126" height="29" viewBox="0 0 126 29" fill="none" xmlns="http://www.w3.org/2000/svg">
<path opacity="0.75" d="M52.5311 0.499984C72.8102 0.508415 91.1448 1.23667 104.402 3.24325C111.039 4.2478 116.366 5.5674 120.021 7.25795C123.599 8.9132 125.401 10.8368 125.501 13.0188C119.87 18.9644 113.005 22.2156 101.912 24.2228C90.7056 26.2504 75.2515 26.9999 52.4992 28C32.2048 27.9923 19.1468 26.7455 11.1754 24.2392C7.19433 22.9875 4.52966 21.4358 2.86171 19.6111C1.30218 17.9049 0.584349 15.9263 0.507526 13.6375C10.0028 12.1142 15.5724 10.8743 19.176 9.78033C22.852 8.66438 24.4823 7.70129 26.1205 6.77417C29.2825 4.98461 32.5775 3.24521 52.5311 0.499984Z" stroke="#2E8B57"/>
</svg>
