<svg width="134" height="25" viewBox="0 0 134 25" fill="none" xmlns="http://www.w3.org/2000/svg">
<path opacity="0.75" d="M66.9323 0.500064C85.3924 0.50707 102.091 1.9109 114.163 4.17029C120.204 5.30077 125.061 6.64115 128.395 8.11513C130.064 8.85286 131.324 9.61277 132.159 10.3753C132.995 11.1388 133.355 11.8573 133.355 12.5252C133.354 13.1931 132.994 13.9113 132.157 14.6742C131.322 15.4361 130.061 16.1951 128.392 16.9315C125.056 18.403 120.198 19.7397 114.157 20.8656C102.083 23.1158 85.3833 24.507 66.9232 24.5001C48.4629 24.4931 31.7633 23.0893 19.6912 20.8298C13.6513 19.6994 8.79486 18.3589 5.46027 16.885C3.79124 16.1472 2.53138 15.3874 1.69648 14.6248C0.860512 13.8612 0.499777 13.1429 0.500029 12.4749C0.500282 11.8069 0.861561 11.0889 1.69811 10.326C2.53358 9.56399 3.79402 8.80509 5.46361 8.0686C8.79931 6.59721 13.6567 5.2604 19.6975 4.13453C31.7713 1.88424 48.4719 0.493077 66.9323 0.500064Z" stroke="#D64045"/>
</svg>
